<?xml version="1.0" encoding="utf-8"?>
<!-- Generator: Adobe Illustrator 21.1.0, SVG Export Plug-In . SVG Version: 6.00 Build 0)  -->
<svg version="1.1" id="Layer_1" xmlns="http://www.w3.org/2000/svg" xmlns:xlink="http://www.w3.org/1999/xlink" x="0px" y="0px"
	 viewBox="0 0 122.5 51.2" style="enable-background:new 0 0 122.5 51.2;" xml:space="preserve">
<style type="text/css">
	.st0{fill:#FFFFFF;}
</style>
<title>car</title>
<g id="Layer_2">
	<g id="Layer_1-2">
		<g id="Layer_2-2">
			<g id="Layer_1-2-2">
				<g id="car">
					<path class="st0" d="M27.3,51.2c-5.9,0-10.8-4.8-10.8-10.8s4.8-10.8,10.8-10.8S38,34.5,38,40.4c0,0,0,0,0,0
						C38,46.4,33.2,51.2,27.3,51.2z M27.3,31.6c-4.9,0-8.9,4-8.9,8.9c0,4.9,4,8.9,8.9,8.9c4.9,0,8.9-4,8.9-8.9
						C36.1,35.6,32.2,31.6,27.3,31.6C27.3,31.6,27.3,31.6,27.3,31.6z"/>
					<path class="st0" d="M27.3,45.8c-2.9,0-5.3-2.4-5.3-5.3s2.4-5.3,5.3-5.3s5.3,2.4,5.3,5.3S30.2,45.8,27.3,45.8L27.3,45.8z
						 M27.3,37.1c-1.9,0-3.4,1.5-3.4,3.4c0,1.9,1.5,3.4,3.4,3.4c1.9,0,3.4-1.5,3.4-3.4c0,0,0,0,0,0l0,0
						C30.6,38.6,29.1,37.1,27.3,37.1z"/>
					<path class="st0" d="M85,51.2c-5.9,0-10.8-4.8-10.8-10.8S79.1,29.7,85,29.7c5.9,0,10.8,4.8,10.8,10.8S91,51.2,85,51.2
						C85,51.2,85,51.2,85,51.2z M85,31.6c-4.9,0-8.9,4-8.9,8.9s4,8.9,8.9,8.9c4.9,0,8.9-4,8.9-8.9S89.9,31.6,85,31.6
						C85,31.6,85,31.6,85,31.6z"/>
					<path class="st0" d="M85,45.8c-2.9,0-5.3-2.4-5.3-5.3s2.4-5.3,5.3-5.3c2.9,0,5.3,2.4,5.3,5.3v0C90.3,43.4,87.9,45.8,85,45.8z
						 M85,37.1c-1.9,0-3.4,1.6-3.4,3.4c0,1.9,1.6,3.4,3.4,3.4c1.9,0,3.4-1.5,3.4-3.4C88.5,38.6,86.9,37.1,85,37.1
						C85,37.1,85,37.1,85,37.1z"/>
					<path class="st0" d="M117,41.4H94.8c-0.5,0-0.9-0.4-0.9-0.9s0.4-0.9,0.9-0.9h21.4c0.2-2.4,0.3-10-5.8-14
						c-7.6-5.1-19-5.8-19.1-5.8c-0.2,0-0.4-0.1-0.5-0.2C90.6,19.3,74,6.6,65.2,3.5C61,2.1,53.1,1.1,43.9,2.7
						C33,4.7,23,9.6,14.8,16.9c-0.1,0.1-0.1,0.1-0.2,0.1c-0.6,0.3-1.5,0.2-3.6,0c-2.5-0.2-6.4-0.6-8.2,0.3c-0.7,0.4-1.3,2.5-0.7,7.3
						c0.3,2.9,1,5.7,1.9,8.5c0,0.1,0.1,0.2,0.1,0.2c0.1,0.7-0.3,1.3-0.8,1.9c-0.8,0.9-1.3,2-1.5,3.2c2,0.4,9.1,0.8,15.5,0.9
						c0.5,0,0.9,0.4,0.9,0.9s-0.4,0.9-0.9,0.9l0,0l0,0c0,0-4-0.1-8-0.3c-8.6-0.4-8.9-0.8-9.2-1.3C0.1,39.7,0,39.5,0,39.3
						c0-1.9,0.6-3.7,1.9-5.1c0.1-0.2,0.3-0.4,0.4-0.5c-1-2.8-1.6-5.8-2-8.8c-0.6-5.3-0.1-8.3,1.7-9.2c2.3-1.2,6.3-0.8,9.2-0.5
						c0.8,0.1,1.7,0.2,2.5,0.2C22.1,7.9,32.4,2.9,43.5,0.9c9.6-1.7,17.8-0.7,22.3,0.9c8.7,3,23.8,14.4,25.9,16
						c1.9,0.1,12.3,1.1,19.7,6.1c8.4,5.6,6.6,16.3,6.5,16.7C117.9,41.1,117.5,41.4,117,41.4z"/>
					<path class="st0" d="M75.2,41.4H37.1c-0.5,0-0.9-0.4-0.9-0.9s0.4-0.9,0.9-0.9h38.1c0.5,0,0.9,0.4,0.9,0.9
						C76.1,41,75.7,41.4,75.2,41.4L75.2,41.4L75.2,41.4z"/>
					<path class="st0" d="M47.6,18H21.4c-0.5,0-1-0.4-1-0.9c0-0.2,0.1-0.4,0.2-0.6C28.5,5.8,46.8,4.4,47.6,4.4c0.5,0,1,0.3,1,0.9
						c0,0,0,0,0,0.1V17C48.6,17.6,48.2,18,47.6,18C47.7,18,47.7,18,47.6,18L47.6,18z M23.5,16.1h23.2V6.4C43,6.8,30.2,8.8,23.5,16.1
						z"/>
					<path class="st0" d="M82.9,18H51.6c-0.5,0-0.9-0.4-0.9-0.9l0,0V5.3c0-0.3,0.1-0.5,0.3-0.7c0.2-0.2,0.4-0.3,0.7-0.3
						c0.3,0,8.6,0.2,12.6,1s18.6,10.5,19.2,10.9c0.4,0.3,0.5,0.9,0.2,1.3C83.4,17.8,83.2,18,82.9,18z M52.5,16.1h27.2
						c-5.1-3.3-13.3-8.4-15.9-8.9c-3.1-0.6-9-0.9-11.3-1V16.1z"/>
					<path class="st0" d="M109.1,31.3L109.1,31.3c-0.7,0.1-1.4,0-2.1-0.2c-1.6-0.8-3-1.9-4.2-3.2c-0.8-1.1-1.3-2.4-1.4-3.8
						c0-0.5,0.2-0.9,0.7-1c0.4-0.1,0.9-0.2,1.4-0.1c1.7,0,3.3,0.5,4.8,1.3c2.3,1.3,4.3,3.2,5.8,5.5c0.3,0.4,0.1,1-0.3,1.3
						c-0.1,0.1-0.3,0.1-0.5,0.1C113.2,31.2,110.8,31.3,109.1,31.3z M107.6,29.3c0.1,0,0.5,0,1.4,0c0.7,0,1.6,0,2.3,0
						c-1.1-1.4-2.5-2.6-4-3.4c-1.2-0.7-2.5-1-3.9-1.1c0.1,0.7,0.4,1.3,0.8,1.9C105.2,27.8,106.4,28.6,107.6,29.3L107.6,29.3z"/>
				</g>
			</g>
		</g>
	</g>
</g>
</svg>
