<svg xmlns="http://www.w3.org/2000/svg" viewBox="0 0 64.73 98"><defs><style>.cls-1{fill:none;}.cls-2{fill:#fff;}</style></defs><title>coffee</title><g id="Layer_2" data-name="Layer 2"><g id="Layer_1-2" data-name="Layer 1"><g id="coffeecup"><polygon class="cls-1" points="61.41 8.96 3.32 8.96 7.09 1.19 57.64 1.19 61.41 8.96"/><path class="cls-2" d="M63.32,10.15H1.41L6.35,0h52ZM5.22,7.77H59.51L56.89,2.38H7.84Z"/><rect class="cls-1" x="1.19" y="8.71" width="62.35" height="4.71"/><path class="cls-2" d="M64.73,14.61H0V7.52H64.73ZM2.38,12.23h60V9.9h-60Z"/><polygon class="cls-1" points="57.16 40.76 7.57 40.76 3.79 13.44 60.94 13.44 57.16 40.76"/><path class="cls-2" d="M58.2,42H6.53L2.42,12.25H62.31ZM8.61,39.57H56.13l3.45-24.94H5.16Z"/><polygon class="cls-1" points="50.3 96.81 14.43 96.81 11.7 74.91 53.03 74.91 50.3 96.81"/><path class="cls-2" d="M51.35,98h-38l-3-24.28h44ZM15.48,95.62H49.25L51.68,76.1H13Z"/><polygon class="cls-1" points="53.03 74.91 11.7 74.91 7.57 40.76 57.16 40.76 53.03 74.91"/><path class="cls-2" d="M54.09,76.1H10.65L6.22,39.57H58.51ZM12.76,73.72H52L55.82,42H8.91Z"/><g id="beans"><path class="cls-2" d="M23.74,44.62,22.66,58.47c2.71-.1,4.88-3.2,4.88-7C27.54,48.13,25.92,45.38,23.74,44.62Z"/><path class="cls-2" d="M22.53,44.38c-2.76,0-5,3.16-5,7,0,3.51,1.83,6.4,4.22,6.94C19.75,53.14,21.2,47.68,22.53,44.38Z"/><path class="cls-2" d="M47.2,52.11,34.06,56.75c1.19,2.43,4.92,3.15,8.43,1.59C45.52,57,47.38,54.4,47.2,52.11Z"/><path class="cls-2" d="M46.91,50.9c-1.13-2.52-4.93-3.27-8.49-1.69-3.22,1.43-5.12,4.27-4.64,6.66C37.76,51.93,43.35,51,46.91,50.9Z"/><path class="cls-2" d="M32.73,64.48l-10.18,3.6c.92,1.88,3.81,2.44,6.53,1.23C31.43,68.26,32.87,66.25,32.73,64.48Z"/><path class="cls-2" d="M32.51,63.54c-.87-2-3.82-2.54-6.59-1.31-2.5,1.11-4,3.31-3.6,5.17C25.42,64.34,29.75,63.64,32.51,63.54Z"/></g></g></g></g></svg>