<svg xmlns="http://www.w3.org/2000/svg" viewBox="0 0 26.22 105.27"><defs><style>.cls-1{fill:none;}.cls-2{fill:#fff;}.cls-3{fill:#fffefd;}.cls-4{fill:#4f524d;}</style></defs><title>corona</title><g id="Layer_2" data-name="Layer 2"><g id="Layer_1-2" data-name="Layer 1"><g id="beer_bottle" data-name="beer bottle"><path class="cls-1" d="M18.28,20.32l0-.24H7.9l-.06.54c-.51,4.58-1,9.19-1.59,13.78H19.91C19.29,29.7,18.8,25,18.28,20.32Z"/><path class="cls-1" d="M16.79,6.28H9.36c-.4,4-.82,8-1.26,12h10Q17.4,12.32,16.79,6.28Z"/><path class="cls-1" d="M13.14,88c2.39-4.48,4.79-9.22,7.08-13.82-2.3-4.56-4.69-9.12-7.06-13.68-2.35,4.62-4.55,9.24-7.26,13.86C8.59,78.94,10.82,83.58,13.14,88ZM10.37,70.2l2-3.91a.76.76,0,0,1,.8-.46.78.78,0,0,1,.81.46l2.18,4.22,1.34,2.59c.21.41.59.92.45,1.41a22.34,22.34,0,0,1-2,3.9l-2,3.91a.94.94,0,0,1-1.61,0L10.16,78.1,8.82,75.51c-.21-.41-.59-.92-.45-1.41A22.37,22.37,0,0,1,10.37,70.2Z"/><path class="cls-1" d="M20.14,36.14H6c-.4,2.89-.85,5.76-1.4,8.62a19.31,19.31,0,0,1-.71,2.93,11,11,0,0,1-.79,1.44,9.67,9.67,0,0,0-1.12,4c-.1,2,0,4.07,0,6.09V97.11c0,2.36.18,4.86,2.7,6a10.57,10.57,0,0,0,4.25.44H19.6a4.63,4.63,0,0,0,4.69-4.65V58.56c0-3.42.27-7.11-1.74-10.12a1,1,0,0,1-.13-.26,12.38,12.38,0,0,1-.92-3.59C21,41.78,20.53,39,20.14,36.14Zm2,38.55L13.93,90.5a.94.94,0,0,1-1.61,0l-.06-.11L7.67,81.51l-2.6-5c-.34-.65-1.23-1.81-.84-2.57l8.19-15.81a.77.77,0,0,1,.78-.46.8.8,0,0,1,.82.46l.06.11,4.59,8.87,2.6,5C21.62,72.77,22.51,73.93,22.12,74.69Z"/><path class="cls-2" d="M23.64,48.81A19.2,19.2,0,0,1,25,53.94V98.89a5.42,5.42,0,0,1-5.22,5.68H6.58A5.8,5.8,0,0,1,.9,98.89V54a10.79,10.79,0,0,1,1.78-5.89c.62-.85,1.48-6,2.36-12.4a1.15,1.15,0,0,1,.16-1.15C5.81,30,6.43,24.81,7,20.08H7V20a.85.85,0,0,1,.19-1.68c.58-5.16,1-9.64,1.29-12.06h-1q-.7,7-1.49,14.06c-.89,8-1.69,16.13-3.22,24.06a18.72,18.72,0,0,1-.7,2.85s0,0-.08.16c-.28.5-.6,1-.85,1.47a12,12,0,0,0-1,4C-.07,55,0,57.11,0,59.18V96.85C0,99,0,101,1.42,102.77a6.74,6.74,0,0,0,5.48,2.5h11a11.83,11.83,0,0,0,4.23-.4,6.44,6.44,0,0,0,4.13-6V59c0-3.85.25-8-2-11.41A.84.84,0,0,1,23.64,48.81Z"/><path class="cls-2" d="M18.91,18.33c.94,0,1,1.5.18,1.72.51,4.69,1.09,9.8,1.67,14.37,1.07.19,1.15,1.33.21,1.64a97,97,0,0,0,1.89,11.16,1,1,0,0,1,1.32.28l0,.06,0-.06a7.52,7.52,0,0,1-.6-1.95c-.31-1.38-.54-2.77-.77-4.16-.65-4-1.16-8.08-1.65-12.12-.93-7.65-1.75-15.31-2.53-23h-1C17.92,8.7,18.36,13.18,18.91,18.33Z"/><path class="cls-2" d="M22.87,47.22a3.32,3.32,0,0,0,.37.9,4.47,4.47,0,0,1,.4.7.84.84,0,0,0,.59-1.25l0-.06A1,1,0,0,0,22.87,47.22Z"/><path class="cls-2" d="M8.09,18.33c.44-4,.86-8,1.26-12h-.9c-.25,2.42-.72,6.9-1.29,12.06h.93Z"/><path class="cls-2" d="M20.14,36.14c.39,2.83.83,5.65,1.36,8.44a12.38,12.38,0,0,0,.92,3.59.83.83,0,0,1,.45-1A97,97,0,0,1,21,36.06a1.66,1.66,0,0,1-.53.08Z"/><path class="cls-2" d="M18.25,20.08l0,.24c.52,4.68,1,9.38,1.63,14.07h.54l.32,0c-.59-4.57-1.17-9.68-1.67-14.37a.82.82,0,0,1-.21,0Z"/><path class="cls-2" d="M22.58,48.43c-.06-.08-.11-.17-.16-.26a1,1,0,0,0,.13.26c2,3,1.74,6.7,1.74,10.12V98.87a4.63,4.63,0,0,1-4.69,4.65H8.89a10.57,10.57,0,0,1-4.25-.44c-2.52-1.11-2.7-3.61-2.7-6V59.26c0-2-.06-4.07,0-6.09a9.67,9.67,0,0,1,1.12-4,11,11,0,0,0,.79-1.44,19.31,19.31,0,0,0,.71-2.93c.55-2.85,1-5.73,1.4-8.62H5.61A.61.61,0,0,1,5,35.71c-.88,6.44-1.75,11.55-2.36,12.4A10.79,10.79,0,0,0,.9,54V98.89a5.8,5.8,0,0,0,5.68,5.68h13.2A5.42,5.42,0,0,0,25,98.89V53.94a19.2,19.2,0,0,0-1.35-5.13A.94.94,0,0,1,22.58,48.43Z"/><path d="M7,20v.05h.39A1.38,1.38,0,0,1,7,20Z"/><path class="cls-3" d="M22.87,47.22a.83.83,0,0,0-.45,1c0,.09.1.18.16.26a.94.94,0,0,0,1.06.38,4.47,4.47,0,0,0-.4-.7A3.32,3.32,0,0,1,22.87,47.22Z"/><path class="cls-2" d="M5.61,34.39h.64c.6-4.59,1.08-9.2,1.59-13.78l.06-.54H7C6.43,24.81,5.81,30,5.2,34.57A.56.56,0,0,1,5.61,34.39Z"/><path class="cls-2" d="M18.06,18.33h.85c-.55-5.15-1-9.63-1.23-12h-.89Q17.39,12.31,18.06,18.33Z"/><path class="cls-2" d="M18.19,19.55H8l-.06.52H18.25Z"/><path class="cls-2" d="M18.06,18.33h-10L8,19.55H18.19Z"/><path class="cls-2" d="M18.91,18.33,19.09,20C19.91,19.83,19.85,18.36,18.91,18.33Z"/><path class="cls-2" d="M7,20l.19-1.68A.85.85,0,0,0,7,20Z"/><path class="cls-2" d="M7.9,20.08,8,19.55H8l.13-1.22H7.16L7,20a1.38,1.38,0,0,0,.39.05Z"/><path class="cls-2" d="M18.06,18.33l.13,1.22h0l.06.52h.63a.82.82,0,0,0,.21,0l-.18-1.72h-.85Z"/><path class="cls-2" d="M19.91,34.39H6.25l-.12.87H20Z"/><path class="cls-2" d="M20,35.26H6.14L6,36.14H20.14Z"/><path class="cls-2" d="M20.77,34.42,21,36.06C21.91,35.74,21.84,34.6,20.77,34.42Z"/><path class="cls-2" d="M5,35.71l.16-1.15A1.15,1.15,0,0,0,5,35.71Z"/><path class="cls-2" d="M5.61,36.14H6l.12-.87h0l.12-.87H5.61a.56.56,0,0,0-.41.18L5,35.71A.61.61,0,0,0,5.61,36.14Z"/><path class="cls-2" d="M19.91,34.39l.12.87h0l.12.87h.31a1.66,1.66,0,0,0,.53-.08l-.21-1.64-.32,0Z"/><path class="cls-1" d="M13.15,79.76c1-1.75,2-3.63,3-5.5-1-1.9-2-3.79-3-5.69q-1.51,2.89-3.1,5.77C11.1,76.18,12.15,78,13.15,79.76Z"/><path class="cls-2" d="M8.82,75.51l1.34,2.59,2.18,4.22a.94.94,0,0,0,1.61,0l2-3.91a22.34,22.34,0,0,0,2-3.9c.13-.49-.24-1-.45-1.41l-1.34-2.59L14,66.29a.78.78,0,0,0-.81-.46,1,1,0,0,1,.68,1.4l-.21.41,3.43,6.62-3.36,6.49.24.42H13.5l-.35.67-.35-.67h-.45l.24-.42L9.27,74.35l3.45-6.65-.24-.47a1,1,0,0,1,.72-1.4.76.76,0,0,0-.8.46l-2,3.91a22.37,22.37,0,0,0-2,3.9C8.24,74.59,8.61,75.1,8.82,75.51Z"/><path class="cls-2" d="M12.35,81.17h.45l-.22-.42Z"/><path class="cls-2" d="M12.47,67.23l.24.47.48-.94.46.88.21-.41a1,1,0,0,0-.68-1.4A1,1,0,0,0,12.47,67.23Z"/><path class="cls-2" d="M14,81.17l-.24-.42-.22.42Z"/><path class="cls-2" d="M9.8,74.82l.26-.48-.26-.46Z"/><path class="cls-2" d="M16.18,74.26l.26-.47v.94l-.26-.47c-1,1.87-2,3.75-3,5.5l.57,1,3.36-6.49-3.43-6.62-.49.93C14.15,70.47,15.13,72.37,16.18,74.26Z"/><path class="cls-2" d="M16.44,73.79l-.26.47.26.47Z"/><path class="cls-2" d="M12.59,80.76l.22.42h.7l.22-.42-.57-1Z"/><path class="cls-2" d="M10.06,74.34l-.26.48v-.94l.26.46q1.59-2.88,3.1-5.77l-.45-.88L9.27,74.35l3.32,6.41.56-1C12.15,78,11.1,76.18,10.06,74.34Z"/><path class="cls-2" d="M12.71,67.7l.45.88.49-.93-.46-.88Z"/><path class="cls-2" d="M13.15,81.85l.35-.67h-.7Z"/><path class="cls-2" d="M13.93,89.55,13.14,88l-.81,1.52Z"/><path class="cls-2" d="M12.39,59.05l.77,1.48.76-1.48a1,1,0,0,0-.71-1.4A1,1,0,0,0,12.39,59.05Z"/><path d="M20.45,73.74l-.24.47.24.47Z"/><path class="cls-2" d="M18.68,67.1l-4.59-8.87L14,58.11a.8.8,0,0,0-.82-.46,1,1,0,0,1,.71,1.4l-.76,1.48c2.37,4.56,4.76,9.12,7.06,13.68l.24-.47v.94l-.24-.47c-2.29,4.6-4.69,9.34-7.08,13.82l.8,1.52H12.32L13.14,88c-2.32-4.46-4.54-9.1-7.24-13.64l-.28.47v-.94l.28.47c2.72-4.62,4.91-9.24,7.26-13.86l-.77-1.48a1,1,0,0,1,.82-1.4.77.77,0,0,0-.78.46L4.23,73.92c-.39.76.5,1.92.84,2.57l2.6,5,4.59,8.87.06.11a.94.94,0,0,0,1.61,0l8.19-15.81c.39-.76-.5-1.92-.84-2.57Z"/><path class="cls-2" d="M5.61,74.87l.28-.47-.28-.47Z"/><path class="cls-1" d="M17.5,3.14a.9.9,0,0,1,.43.1l-.06-1.32H8.31L8.25,3.23a.9.9,0,0,1,.41-.09Z"/><path class="cls-4" d="M9.25,4.36h.3l0-.35Z"/><path class="cls-4" d="M16.57,4l0,.35h.3Z"/><path class="cls-1" d="M9.25,4.36,9.58,4l0,.35H16.6l0-.35.33.35h.6l0,.17H18l-.06-1.29a.9.9,0,0,0-.43-.1H8.65a.9.9,0,0,0-.41.09l-.06,1.3h.45l0-.17Z"/><path class="cls-4" d="M9.55,4.36h-.3l-.17.17h.45Z"/><path class="cls-4" d="M16.9,4.36l.17.17h.44l0-.17Z"/><path class="cls-1" d="M9.25,4.36h-.6l0,.17h.44Z"/><path class="cls-4" d="M16.9,4.36h-.3l0,.17h.45Z"/><path class="cls-1" d="M15,4.36H9.55l0,.17h7.09l0-.17Z"/><path d="M7.21,4.54l0,0v0Z"/><path d="M18.65,6.28h0Z"/><path class="cls-2" d="M19.05,4.54h-.13l0,.87h-.4l.09.86h.4A.88.88,0,0,0,19.05,4.54Z"/><path class="cls-2" d="M7.21,5.41l0-.85,0,0h0L7.43.87H18.74l.18,3.67h.13a.88.88,0,0,1,0,1.75h-.37a.88.88,0,0,0,1.21-.86c-.07-1.53-.15-3-.22-4.54A.9.9,0,0,0,18.74,0H7.43A.89.89,0,0,0,6.5.87c-.07,1.53-.15,3-.22,4.54a.89.89,0,0,0,.93.88H7.5l.09-.87Z"/><path class="cls-2" d="M16.71,5.41H9.44l-.09.87h7.44Z"/><path class="cls-2" d="M18,5.44v0H17.6l.08.87h1A.89.89,0,0,1,18,5.44Z"/><path class="cls-2" d="M18,5.44a.89.89,0,0,0,.62.83l-.09-.86H18Z"/><path d="M8.14,5.43v0h0Z"/><path class="cls-2" d="M8.55,5.41H8.14v0l0,0H7.59l-.09.87h1Z"/><path class="cls-2" d="M16.79,6.28h.89l-.08-.87h-.89Z"/><path class="cls-2" d="M9.44,5.41h-.9l-.09.87h.9Z"/><path class="cls-2" d="M7.43,1.92h.88l0-1A4.31,4.31,0,0,0,7.43,1.92Z"/><path class="cls-2" d="M17.81.9l0,1h.88A4.44,4.44,0,0,0,17.81.9Z"/><path class="cls-2" d="M18.56,5.41H19l0-.87h-.44Z"/><path class="cls-2" d="M7.25,4.57l0,.85h.38l.05-.51A2.19,2.19,0,0,0,7.25,4.57Z"/><path class="cls-2" d="M7.72,4.07a1,1,0,0,1,.53-.84l.06-1.31H7.43a4.31,4.31,0,0,1,.93-1l0,1h9.55l0-1a4.44,4.44,0,0,1,.93,1h-.88l.06,1.32a1,1,0,0,1,.51.83l0,.47h.44L18.74.87H7.43L7.25,4.54h.42Z"/><path class="cls-2" d="M7.64,4.9l0-.36H7.25v0A2.19,2.19,0,0,1,7.64,4.9Z"/><path class="cls-2" d="M16.65,4.89H9.49l-.05.52h7.26Z"/><path class="cls-2" d="M18.48,4.54l0-.47a1,1,0,0,0-.51-.83L18,4.54Z"/><path class="cls-2" d="M7.59,5.41h.53L7.64,4.9Z"/><path class="cls-2" d="M17.52,4.54l.08.87H18l0-.87Z"/><path class="cls-2" d="M7.67,4.54l0,.36.48.51h0l0-.87Z"/><path class="cls-2" d="M18,4.54l0,.87h.53l-.09-.87Z"/><path class="cls-2" d="M8.18,4.54l0,.87h.41l.09-.87Z"/><path class="cls-2" d="M7.72,4.07l0,.47h.51l.06-1.3A1,1,0,0,0,7.72,4.07Z"/><path class="cls-2" d="M17.07,4.54a2.1,2.1,0,0,0,.43.35h-.84l.05.52h.89l-.08-.87Z"/><path class="cls-2" d="M16.65,4.89h.84a2.1,2.1,0,0,1-.43-.35h-.45Z"/><path class="cls-2" d="M16.62,4.54H9.53l0,.35h7.16Z"/><path class="cls-2" d="M9.49,4.89H8.65a2.09,2.09,0,0,0,.43-.35H8.63l-.09.87h.9Z"/><path class="cls-2" d="M9.08,4.54a2.09,2.09,0,0,1-.43.35h.84l0-.35Z"/></g></g></g></svg>